<svg xmlns="http://www.w3.org/2000/svg" viewBox="0 0 512 512"><path d="M432.455 100h-22.433C402.649 43.65 354.328 0 296 0h-76c-58.616 0-107.125 44.083-114.127 100.836C46.338 107.85 0 158.611 0 220c0 26.372 8.395 51.398 24.278 72.373 13.057 17.242 30.788 30.774 50.722 38.88V512h135V362h-45v-30.747c19.934-8.105 37.666-21.638 50.722-38.88C231.605 271.398 240 246.372 240 220c0-60.689-45.288-110.993-103.843-118.908C142.816 60.818 177.869 30 220 30h76c41.749 0 76.539 30.264 83.648 70h-20.103L280 184.026V512h232V184.026L432.455 100z"/><path fill="#fff" d="M135 220v-25.964c8.958 5.195 15 14.884 15 25.964 0 16.542-13.458 30-30 30s-30-13.458-30-30c0-11.08 6.042-20.769 15-25.964V220h30zm75 0c0 39.527-26.433 75.002-64.279 86.267L135 309.458V392h45v30h-45v30h45v30h-75V309.458l-10.721-3.191C56.433 295.002 30 259.527 30 220c0-44.516 32.489-81.58 75-88.743v30.642C79.151 168.576 60 192.094 60 220c0 33.084 26.916 60 60 60s60-26.916 60-60c0-27.906-19.151-51.424-45-58.102v-30.642c42.511 7.164 75 44.228 75 88.744z"/><path fill="#dfb947" d="M482 482H310V195.974L372.455 130H381v30h30v-30h8.545L482 195.974V482z"/></svg>