<?xml version="1.0" encoding="utf-8"?>
<!-- Generator: Adobe Illustrator 25.0.0, SVG Export Plug-In . SVG Version: 6.00 Build 0)  -->
<svg version="1.1" id="Слой_1" xmlns="http://www.w3.org/2000/svg" xmlns:xlink="http://www.w3.org/1999/xlink" x="0px" y="0px"
	 viewBox="0 0 61 75" style="enable-background:new 0 0 61 75;" xml:space="preserve">
<style type="text/css">
	.st0{fill-rule:evenodd;clip-rule:evenodd;fill:#AE8C64;}
</style>
<desc>Created with Sketch.</desc>
<g>
	<g transform="translate(-599.000000, -610.000000)">
		<g transform="translate(599.000000, 610.000000)">
			<path class="st0" d="M58.5,64.5h-56v-2h5h46h5V64.5z M10.1,24.9C10.1,24.9,10.1,24.9,10.1,24.9l6-4.8l0,0L30.5,8.8l26,19.7h-3
				h-1.7L31.1,13.7c-0.4-0.3-0.8-0.2-1.2,0L9.2,29.5H7.5H4.4L10.1,24.9z M8.5,8.5h8v2h-1h-6h-1V8.5z M16.5,52.5c-0.6,0-1-0.4-1-1v-5
				c0-2,0.9-3.9,2.4-5.2c-0.8-1-1.4-2.4-1.4-3.8c0-3.3,2.7-6,6-6c2.1,0,3.9,1.1,5,2.8c0.9-0.5,1.9-0.8,3-0.8c1.1,0,2.1,0.3,3,0.8
				c1.1-1.7,3-2.8,5-2.8c3.3,0,6,2.7,6,6c0,1.4-0.5,2.8-1.4,3.8c1.5,1.3,2.4,3.2,2.4,5.2v5c0,0.6-0.4,1-1,1h-7v1c0,0.6-0.4,1-1,1
				h-12c-0.6,0-1-0.4-1-1v-1H16.5z M59.5,60.5h-5v-30h5c0.4,0,0.8-0.3,0.9-0.7c0.1-0.4,0-0.9-0.3-1.1l-29-22c-0.4-0.3-0.9-0.3-1.2,0
				L16.5,17.3v-4.8h1c0.6,0,1-0.4,1-1v-4c0-0.6-0.4-1-1-1h-10c-0.6,0-1,0.4-1,1v4c0,0.6,0.4,1,1,1h1v11.2l-7.6,6
				c-0.3,0.3-0.5,0.7-0.3,1.1s0.5,0.7,0.9,0.7h5v29h-5c-0.6,0-1,0.4-1,1v4c0,0.6,0.4,1,1,1h58c0.6,0,1-0.4,1-1v-4
				C60.5,60.9,60.1,60.5,59.5,60.5L59.5,60.5z"/>
			<path class="st0" d="M23.5,48.5c0-0.3,0-0.6,0.1-0.8c0-0.1,0-0.2,0-0.3c0-0.2,0.1-0.4,0.1-0.6c0-0.1,0.1-0.2,0.1-0.3
				c0-0.2,0.1-0.3,0.2-0.5c0-0.1,0.1-0.2,0.1-0.3c0.1-0.2,0.2-0.3,0.2-0.5c0-0.1,0.1-0.1,0.1-0.2c0.1-0.2,0.3-0.5,0.4-0.7
				c0,0,0-0.1,0.1-0.1c0.1-0.2,0.3-0.4,0.5-0.5c0.1-0.1,0.1-0.1,0.2-0.2c0.1-0.1,0.2-0.2,0.3-0.2c-0.1-0.2-0.3-0.4-0.4-0.6
				c-0.1,0.1-0.2,0.1-0.3,0.1c-0.3,0.1-0.6,0.3-0.9,0.4c-0.1,0-0.3,0.1-0.4,0.1c-0.2,0-0.3,0.1-0.5,0.1c-0.1,0-0.3,0-0.4,0
				c-0.1,0-0.3,0-0.4,0c-1.1,0-2.2-0.3-3.1-0.9c-1.2,0.9-1.9,2.4-1.9,3.9v4h6V48.5z"/>
			<path class="st0" d="M20,40.6c1.3,1.1,3.2,1.2,4.6,0.2c-0.1-0.4-0.2-0.9-0.2-1.3c0-0.4,0-0.7,0.1-1c0,0,0,0,0-0.1
				c0.2-1.1,0.7-2.1,1.4-2.8c-0.7-1.3-2-2.1-3.5-2.1c-2.2,0-4,1.8-4,4C18.5,38.8,19.1,39.9,20,40.6C20,40.6,20,40.6,20,40.6"/>
			<path class="st0" d="M26.8,40.9C26.8,40.9,26.8,40.9,26.8,40.9c0,0.1,0.1,0.2,0.1,0.3c0,0,0,0,0,0c0.1,0.3,0.3,0.5,0.5,0.7
				c0,0,0,0,0,0c0.2,0.2,0.4,0.4,0.6,0.6c0,0,0,0,0,0c1.5,1.2,3.5,1.2,5,0c0,0,0,0,0,0c0.2-0.2,0.4-0.4,0.6-0.6c0,0,0,0,0,0
				c0.2-0.2,0.3-0.5,0.5-0.7c0,0,0,0,0,0c0-0.1,0.1-0.2,0.1-0.3c0,0,0,0,0,0c0.1-0.2,0.1-0.5,0.2-0.7c0-0.2,0.1-0.5,0.1-0.7
				c0-0.3,0-0.6-0.1-0.8c0,0,0-0.1,0-0.1c-0.1-0.2-0.1-0.5-0.2-0.7c0,0,0,0,0-0.1c-0.2-0.5-0.6-0.9-1-1.3c0,0,0,0,0,0
				c-0.7-0.6-1.6-1-2.6-1c-1,0-1.9,0.4-2.6,1c0,0,0,0,0,0c-0.4,0.4-0.7,0.8-1,1.3c0,0,0,0,0,0.1c-0.1,0.2-0.2,0.4-0.2,0.7
				c0,0,0,0.1,0,0.1c-0.1,0.3-0.1,0.5-0.1,0.8c0,0.2,0,0.5,0.1,0.7C26.6,40.4,26.7,40.6,26.8,40.9"/>
			<path class="st0" d="M36.4,38.5c0.1,0.3,0.1,0.7,0.1,1c0,0.5-0.1,0.9-0.2,1.3c1.4,0.9,3.3,0.9,4.6-0.2c0,0,0,0,0,0
				c0.9-0.7,1.5-1.8,1.5-3.1c0-2.2-1.8-4-4-4c-1.5,0-2.8,0.8-3.5,2.1C35.7,36.4,36.2,37.3,36.4,38.5C36.4,38.4,36.4,38.5,36.4,38.5"
				/>
			<path class="st0" d="M41.6,42.6c-0.9,0.6-2,0.9-3.1,0.9c-0.1,0-0.3,0-0.4,0c-0.1,0-0.3,0-0.4,0c-0.2,0-0.3-0.1-0.5-0.1
				c-0.1,0-0.3-0.1-0.4-0.1c-0.3-0.1-0.6-0.2-0.9-0.4c-0.1,0-0.2-0.1-0.3-0.1c-0.1,0.2-0.3,0.4-0.4,0.6c0.1,0.1,0.2,0.2,0.3,0.2
				c0.1,0.1,0.1,0.1,0.2,0.2c0.2,0.2,0.3,0.4,0.5,0.5c0,0,0,0.1,0.1,0.1c0.2,0.2,0.3,0.4,0.4,0.7c0,0.1,0.1,0.1,0.1,0.2
				c0.1,0.2,0.2,0.3,0.2,0.5c0,0.1,0.1,0.2,0.1,0.3c0.1,0.2,0.1,0.3,0.2,0.5c0,0.1,0.1,0.2,0.1,0.3c0,0.2,0.1,0.4,0.1,0.6
				c0,0.1,0,0.2,0,0.3c0,0.3,0.1,0.6,0.1,0.8v2h6v-4C43.5,45,42.8,43.6,41.6,42.6"/>
			<path class="st0" d="M25.8,46.7c0,0.1-0.1,0.2-0.1,0.3c0,0.1,0,0.1-0.1,0.2c0,0.1-0.1,0.3-0.1,0.4c0,0.1,0,0.1,0,0.2
				c0,0.2,0,0.4,0,0.6v3v1h10v-1v-3c0-0.2,0-0.4,0-0.6c0-0.1,0-0.1,0-0.2c0-0.1,0-0.3-0.1-0.4c0-0.1,0-0.2-0.1-0.2
				c0-0.1-0.1-0.2-0.1-0.3c0-0.1-0.1-0.2-0.1-0.2c0-0.1-0.1-0.2-0.2-0.3c0-0.1-0.1-0.1-0.1-0.2c-0.1-0.1-0.1-0.2-0.2-0.3
				c0-0.1-0.1-0.1-0.1-0.2c-0.1-0.1-0.2-0.2-0.2-0.3c-0.1-0.1-0.1-0.1-0.2-0.2c-0.1-0.1-0.2-0.2-0.4-0.3c0,0-0.1,0-0.1-0.1
				c-0.9,0.6-2,0.9-3.1,0.9c-1.1,0-2.2-0.3-3.1-0.9c0,0-0.1,0.1-0.1,0.1c-0.1,0.1-0.2,0.2-0.4,0.3c-0.1,0.1-0.1,0.1-0.1,0.2
				c-0.1,0.1-0.2,0.2-0.2,0.3c0,0.1-0.1,0.1-0.1,0.2c-0.1,0.1-0.1,0.2-0.2,0.3c0,0.1-0.1,0.1-0.1,0.2c-0.1,0.1-0.1,0.2-0.2,0.3
				C25.9,46.6,25.9,46.6,25.8,46.7"/>
		</g>
	</g>
</g>
</svg>
