<?xml version="1.0" encoding="utf-8"?>
<!-- Generator: Adobe Illustrator 25.0.0, SVG Export Plug-In . SVG Version: 6.00 Build 0)  -->
<svg version="1.1" id="Слой_1" xmlns="http://www.w3.org/2000/svg" xmlns:xlink="http://www.w3.org/1999/xlink" x="0px" y="0px"
	 viewBox="0 0 512 640" style="enable-background:new 0 0 512 640;" xml:space="preserve">
<style type="text/css">
	.st0{fill:#AE8C64;}
</style>
<g>
	<path class="st0" d="M160,397.9c0.1,2.3-1.5,4.3-3.7,4.6c-4.3,1-7,5.3-6,9.6c0.2,0.9,0.6,1.7,1,2.5c1.4,2.2,0.7,5.2-1.5,6.6
		c-1.6,1-3.5,1-5.1,0c-3.7-2.4-8.7-1.2-11,2.5c-0.5,0.8-0.8,1.6-1,2.5c-0.6,2.6-3.1,4.2-5.7,3.6c-1.8-0.4-3.2-1.8-3.6-3.6
		c-1-4.3-5.3-7-9.6-6c-0.9,0.2-1.7,0.6-2.5,1c-2.2,1.4-5.2,0.7-6.6-1.5c-1-1.6-1-3.5,0-5.1c2.4-3.7,1.2-8.7-2.5-11
		c-0.8-0.5-1.6-0.8-2.5-1c-2.6-0.6-4.2-3.1-3.6-5.7c0.4-1.8,1.8-3.2,3.6-3.6c4.3-1,7-5.3,6-9.6c-0.2-0.9-0.6-1.7-1-2.5
		c-1.4-2.2-0.7-5.2,1.5-6.6c1.6-1,3.5-1,5.1,0c3.7,2.4,8.7,1.2,11-2.5c0.5-0.8,0.8-1.6,1-2.5c0.6-2.6,3.1-4.2,5.7-3.6
		c1.8,0.4,3.2,1.8,3.6,3.6c1,4.3,5.3,7,9.6,6c0.9-0.2,1.7-0.6,2.5-1c2.2-1.4,5.2-0.7,6.6,1.5c1,1.6,1,3.5,0,5.1
		c-2.4,3.7-1.2,8.7,2.5,11c0.8,0.5,1.6,0.8,2.5,1C158.5,393.6,160.1,395.6,160,397.9z M448,205.9v256H64v-256H448z M328,261.9h16
		v-32h-16V261.9z M296,261.9h16v-32h-16V261.9z M264,261.9h16v-32h-16V261.9z M232,261.9h16v-32h-16V261.9z M200,261.9h16v-32h-16
		V261.9z M168,261.9h16v-32h-16V261.9z M152,301.9h208v-16H152V301.9z M344,333.9v-16H168v16H344z M224,349.9v16h112v-16H224z
		 M80,245.9h16v-16H80V245.9z M80,325.9h16v-64H80V325.9z M176,397.9c0.1-6.5-2.9-12.6-8.1-16.5c1.4-11.5-6.7-22-18.2-23.4
		c-1.7-0.2-3.4-0.2-5.2,0c-7.1-9.1-20.3-10.8-29.4-3.6c-1.4,1.1-2.6,2.3-3.6,3.6c-11.5-1.4-22,6.7-23.4,18.2c-0.2,1.7-0.2,3.4,0,5.2
		c-9.1,7.1-10.8,20.3-3.6,29.4c1.1,1.4,2.3,2.6,3.6,3.6c-1.4,11.5,6.7,22,18.2,23.4c1.7,0.2,3.4,0.2,5.2,0
		c7.1,9.1,20.3,10.8,29.4,3.6c1.4-1.1,2.6-2.3,3.6-3.6c11.5,1.4,22-6.7,23.4-18.2c0.2-1.7,0.2-3.4,0-5.2
		C173.1,410.5,176.1,404.4,176,397.9z M176,365.9h32v-16h-32V365.9z M208,397.9h96v-16h-96V397.9z M400,429.9h-24.2
		c1.8-6.3,2.5-13.1-0.6-18.1c-2.4-3.8-6.7-6.1-11.2-5.9c-7.7,0-14.6,5.4-20,11.5c-4.5-9.9-11.7-11.5-16-11.5
		c-16.1,0-28.8,23.7-31.2,28.4l14.3,7.2c5.1-10.1,13.2-19.6,16.8-19.6c2.1,1.2,4,9.8,4,16c0,4.4,3.6,8,8,8c3,0,5.8-1.7,7.2-4.4
		c3.9-7.8,9.7-15.2,13.8-18.2c-1,3.8-2.3,7.5-4.1,11c-2,4-0.4,8.8,3.6,10.7c1.1,0.6,2.3,0.8,3.6,0.8h36V429.9z M432,429.9h-16v16h16
		V429.9z M452.7,189.9l16-16H43.3l16,16H452.7z M48,201.2l-16-16v297.4l16-16V201.2z M464,466.6l16,16V185.2l-16,16V466.6z
		 M452.7,477.9H59.3l-16,16h425.4L452.7,477.9z"/>
</g>
</svg>
