<?xml version="1.0" encoding="utf-8"?>
<!-- Generator: Adobe Illustrator 25.0.0, SVG Export Plug-In . SVG Version: 6.00 Build 0)  -->
<svg version="1.1" id="Слой_1" xmlns="http://www.w3.org/2000/svg" xmlns:xlink="http://www.w3.org/1999/xlink" x="0px" y="0px"
	 viewBox="0 0 64 80" style="enable-background:new 0 0 64 80;" xml:space="preserve">
<style type="text/css">
	.st0{fill:#AE8C64;}
</style>
<g>
	<path class="st0" d="M60.1,14.9c-0.9-0.9-2-1.4-3.3-1.4s-2.4,0.5-3.3,1.4l-0.2,0.2l-0.2-0.2c-0.9-0.9-2-1.4-3.3-1.4
		s-2.4,0.5-3.3,1.4c-0.8,0.8-1.2,1.9-1.2,3V18c0,1.2,0.5,2.4,1.4,3.3l6.6,6.6l6.6-6.6c0.9-0.9,1.4-2.1,1.4-3.3v-0.2
		C61.4,16.7,60.9,15.7,60.1,14.9z"/>
	<path class="st0" d="M25.4,19.5H30l3.3,3.3c0.4,0.4,1.1,0.7,1.7,0.7c1.3,0,2.4-1.1,2.4-2.4v-1.6h2c1.1,0,2-0.9,2-2v-6
		c0-1.1-0.9-2-2-2h-14c-1.1,0-2,0.9-2,2v6C23.4,18.6,24.3,19.5,25.4,19.5z M35.4,13.5h2v2h-2V13.5z M31.4,13.5h2v2h-2V13.5z
		 M27.4,13.5h2v2h-2V13.5z"/>
	<polygon class="st0" points="4.2,30.2 10.4,25.5 16.6,30.2 14.2,22.5 20.1,17.5 12.7,17.5 10.4,10.3 8,17.5 0.6,17.5 6.5,22.5 	"/>
	<path class="st0" d="M42.7,53.5h0.6v-2h-0.5c-1.3,0-2.5-0.8-3-2c-0.5-1.3-0.3-2.7,0.7-3.7l0.4-0.4L39.4,44L39,44.4
		c-1,1-2.4,1.2-3.6,0.7c-1.3-0.5-2.1-1.7-2.1-3.1v-0.5h-2v0.6c0,1.3-0.8,2.4-1.9,2.9l-0.1,0.1c-1.2,0.5-2.6,0.3-3.6-0.6L25.3,44
		l-1.4,1.5l0.4,0.4c1,1,1.2,2.4,0.7,3.6l-0.1,0.1c-0.5,1.2-1.6,1.9-2.9,1.9h-0.6v2H22c1.3,0,2.4,0.8,3,2c0.5,1.3,0.3,2.7-0.6,3.6
		l-0.4,0.4l1.4,1.4l0.4-0.4c0.9-0.9,2.3-1.2,3.6-0.6c1.3,0.5,2.1,1.7,2.1,3v0.6h2v-0.6c0-1.3,0.8-2.4,2-3c1.3-0.5,2.7-0.3,3.6,0.6
		l0.4,0.4l1.4-1.4l-0.4-0.4c-0.9-0.9-1.2-2.3-0.6-3.6C40.3,54.3,41.4,53.5,42.7,53.5z M32.4,58.5c-3.3,0-6-2.7-6-6s2.7-6,6-6
		s6,2.7,6,6S35.7,58.5,32.4,58.5z"/>
	<path class="st0" d="M3.4,56.5v8c0,2.8,2.2,5,5,5h3v-18h-3C5.6,51.5,3.4,53.8,3.4,56.5z"/>
	<polygon class="st0" points="49.4,68.7 55.4,64.7 55.4,56.3 49.4,52.4 	"/>
	<path class="st0" d="M45.4,55.5h-2.6c-0.5,0-0.9,0.3-1.1,0.8c-0.2,0.5-0.1,1.1,0.2,1.4l1.8,1.8h3.8v-8h-2V55.5z"/>
	<path class="st0" d="M17.4,51.5v8h3.8l1.8-1.8c0.3-0.3,0.4-0.9,0.2-1.4c-0.2-0.5-0.7-0.8-1.1-0.8h-2.6v-4H17.4z"/>
	<path class="st0" d="M57.4,57.6v5.8l3.8-2.5c0.2-0.1,0.2-0.3,0.2-0.5s-0.1-0.4-0.2-0.5L57.4,57.6z"/>
	<path class="st0" d="M39.4,63.8L37.6,62c-0.3-0.3-0.9-0.4-1.4-0.2c-0.5,0.2-0.8,0.6-0.8,1.1v2.6h-6v-2.6c0-0.5-0.3-0.9-0.8-1.1
		c-0.5-0.2-1.1-0.1-1.4,0.2l-1.9,1.9L23,61.5h-5.6v8h30v-8h-5.6L39.4,63.8z"/>
	<rect x="13.4" y="51.5" class="st0" width="2" height="18"/>
	<circle class="st0" cx="32.4" cy="52.5" r="2"/>
	<rect x="31.4" y="25.5" class="st0" width="2" height="14"/>
	<path class="st0" d="M54.4,34.5v-4h-2v4c0,0.6-0.4,1-1,1h-10c-1.7,0-3,1.3-3,3v3.6l2,0v-3.6c0-0.6,0.4-1,1-1h10
		C53,37.5,54.4,36.2,54.4,34.5z"/>
	<path class="st0" d="M12.4,34.5v-4h-2v4c0,1.7,1.3,3,3,3h10c0.6,0,1,0.4,1,1v3.6l2,0v-3.6c0-1.7-1.3-3-3-3h-10
		C12.8,35.5,12.4,35.1,12.4,34.5z"/>
</g>
</svg>
