<?xml version="1.0" encoding="utf-8"?>
<!-- Generator: Adobe Illustrator 25.0.0, SVG Export Plug-In . SVG Version: 6.00 Build 0)  -->
<svg version="1.1" id="Слой_1" xmlns="http://www.w3.org/2000/svg" xmlns:xlink="http://www.w3.org/1999/xlink" x="0px" y="0px"
	 viewBox="0 0 64 80" style="enable-background:new 0 0 64 80;" xml:space="preserve">
<style type="text/css">
	.st0{fill:#AE8C64;}
</style>
<g>
	<polygon class="st0" points="25,58 25.3,58 32.5,58 29.3,50 29,50 16.7,50 13.5,58 19.7,58 	"/>
	<path class="st0" d="M39,58h1.7h9.8l-3.2-8H31.5l3.2,8H39z M43,52h2v2h-2V52z M39,52h2v2h-2V52z M35,52h2v2h-2V52z"/>
	<polygon class="st0" points="20.3,60 22.1,66 24.5,60 	"/>
	<path class="st0" d="M53.5,60h-12l3.2,8h15.8l-3.2-8H53.5z M47,64h-2v-2h2V64z M51,64h-2v-2h2V64z M55,64h-2v-2h2V64z"/>
	<polygon class="st0" points="10.5,60 5.7,60 3.3,68 20.7,68 18.3,60 	"/>
	<polygon class="st0" points="39,60 35.5,60 26.7,60 23.5,68 35,68 42.5,68 39.3,60 	"/>
	<path class="st0" d="M36.8,43.5L36,37.4c-1.3,0.4-2.6,0.6-4,0.6s-2.8-0.2-4-0.6l-0.8,6.1l3.8-1.3V40h2v2.3L36.8,43.5z"/>
	<path class="st0" d="M32,36c7.2,0,13-5.8,13-13s-5.8-13-13-13s-13,5.8-13,13S24.8,36,32,36z M32,13c5.5,0,10,4.5,10,10
		s-4.5,10-10,10s-10-4.5-10-10S26.5,13,32,13z"/>
	<polygon class="st0" points="38.7,19.7 37.3,18.3 29,26.6 26.7,24.3 25.3,25.7 29,29.4 	"/>
	<rect x="54" y="25" class="st0" width="2" height="2"/>
	<rect x="54" y="29" class="st0" width="2" height="2"/>
	<rect x="56" y="27" class="st0" width="2" height="2"/>
	<rect x="52" y="27" class="st0" width="2" height="2"/>
	<rect x="59" y="36" class="st0" width="2" height="2"/>
	<rect x="59" y="40" class="st0" width="2" height="2"/>
	<rect x="61" y="38" class="st0" width="2" height="2"/>
	<rect x="57" y="38" class="st0" width="2" height="2"/>
	<rect x="51" y="41" class="st0" width="2" height="2"/>
	<rect x="51" y="45" class="st0" width="2" height="2"/>
	<rect x="53" y="43" class="st0" width="2" height="2"/>
	<rect x="49" y="43" class="st0" width="2" height="2"/>
	<rect x="57" y="16" class="st0" width="2" height="2"/>
	<rect x="57" y="20" class="st0" width="2" height="2"/>
	<rect x="59" y="18" class="st0" width="2" height="2"/>
	<rect x="55" y="18" class="st0" width="2" height="2"/>
	<rect x="49" y="10" class="st0" width="2" height="2"/>
	<rect x="49" y="14" class="st0" width="2" height="2"/>
	<rect x="51" y="12" class="st0" width="2" height="2"/>
	<rect x="47" y="12" class="st0" width="2" height="2"/>
	<rect x="8" y="25" class="st0" width="2" height="2"/>
	<rect x="8" y="29" class="st0" width="2" height="2"/>
	<rect x="6" y="27" class="st0" width="2" height="2"/>
	<rect x="10" y="27" class="st0" width="2" height="2"/>
	<rect x="3" y="36" class="st0" width="2" height="2"/>
	<rect x="3" y="40" class="st0" width="2" height="2"/>
	<rect x="1" y="38" class="st0" width="2" height="2"/>
	<rect x="5" y="38" class="st0" width="2" height="2"/>
	<rect x="11" y="41" class="st0" width="2" height="2"/>
	<rect x="11" y="45" class="st0" width="2" height="2"/>
	<rect x="9" y="43" class="st0" width="2" height="2"/>
	<rect x="13" y="43" class="st0" width="2" height="2"/>
	<rect x="5" y="16" class="st0" width="2" height="2"/>
	<rect x="5" y="20" class="st0" width="2" height="2"/>
	<rect x="3" y="18" class="st0" width="2" height="2"/>
	<rect x="7" y="18" class="st0" width="2" height="2"/>
	<rect x="13" y="10" class="st0" width="2" height="2"/>
	<rect x="13" y="14" class="st0" width="2" height="2"/>
	<rect x="11" y="12" class="st0" width="2" height="2"/>
	<rect x="15" y="12" class="st0" width="2" height="2"/>
</g>
</svg>
